<svg id="Layer_1" data-name="Layer 1" xmlns="http://www.w3.org/2000/svg" viewBox="0 0 355.74 294.11"><defs><style>.cls-1{fill:#fff;}</style></defs><title>Untitled-1</title><path class="cls-1" d="M825.72,258.1a8,8,0,0,0-10.14-4.47,7.47,7.47,0,0,0-4.61,9.72,8,8,0,0,0,10.14,4.48,7.48,7.48,0,0,0,4.62-9.73m12.9,19.46C817.79,296,849,345.23,830.68,397.08c-14.74,41.71-53.72,66.22-123.31,66.22l-78.88,69.24H579l79-69.24H584.51L745.54,322,757,287c.14-.64.33-1.31.47-2l.05-.18v0c4.34-15.68,17.37-30,34.32-35.8,10.58-3.62,21.9-4.94,31.29-3.14l42.56,7.8s-6.14,5.3-27.12,23.87M638.24,470h-49.4L510,539.21h49.49Z" transform="translate(-510 -245.1)"/></svg>