<svg id="Layer_1" data-name="Layer 1" xmlns="http://www.w3.org/2000/svg" viewBox="0 0 596.51 277.9"><defs><style>.cls-1{fill:#3d4866;}</style></defs><title>Untitled-1</title><path class="cls-1" d="M981.53,453.94V394.48H968.11V418H943.36V394.48H929.94v59.46h13.42V430.07h24.75v23.87Zm-90.8,1c-17.95,0-31.28-13.51-31.28-30.58v-.17c0-16.9,13.07-30.75,31.8-30.75,11.5,0,18.39,3.74,24.05,9.17l-8.54,9.6c-4.7-4.16-9.5-6.71-15.6-6.71-10.28,0-17.69,8.32-17.69,18.52v.17c0,10.19,7.23,18.69,17.69,18.69,7,0,11.25-2.72,16-7l8.54,8.41c-6.27,6.54-13.25,10.62-25,10.62m-43.22-1V394.48H834.28v36.62L805.7,394.48H793.32v59.46h13.24v-37.8l29.54,37.8Zm-82.87-59.46h13.42v59.46H764.65Zm-13.06,11.89V394.48H705.14v59.46h13.42v-23h29.11V419H718.56V406.37Zm-74.15,47.57-18.91-25.31-7.06,7.14v18.18H638V394.48h13.42v26l24.75-26h16.21l-24.83,25.23,26,34.23Zm-53.59-9.6-8.54-8.41c-4.79,4.25-9.06,7-16,7-10.46,0-17.69-8.5-17.69-18.69V424c0-10.19,7.41-18.52,17.69-18.52,6.1,0,10.9,2.55,15.6,6.71l8.54-9.6c-5.66-5.43-12.55-9.17-24.05-9.17-18.74,0-31.8,13.85-31.8,30.75v.17c0,17.08,13.33,30.58,31.28,30.58,11.77,0,18.74-4.08,25-10.62m-91.58-34.57L524.17,429h16.21Zm18.47,44.17-5.58-13.34H519.38l-5.58,13.34H500.12l26.14-59.89h12.37l26.14,59.89Zm-59,0V442H461.34V394.48H447.93v59.46Zm-68.23-18.09c0-4-3-6.46-9.94-6.46H398.09v13.08H414c5.93,0,9.5-2,9.5-6.45Zm-3.4-23.78c0-3.91-3.14-6.12-8.8-6.12H398.09v12.57h12.38c5.92,0,9.67-1.87,9.67-6.29ZM414,453.94H385V394.48h28.32c12.46,0,20.13,6,20.13,15.37V410c0,6.71-3.66,10.45-8,12.83,7.06,2.63,11.41,6.62,11.41,14.61v.17c0,10.87-9.06,16.31-22.83,16.31" transform="translate(-385.02 -247.32)"/><path class="cls-1" d="M876.79,499.87c0-3,2.75-5.4,7.06-5.4a14.54,14.54,0,0,1,9.56,3.6l2.18-2.89a17.3,17.3,0,0,0-11.65-4.07c-6.3,0-10.9,3.79-10.9,9.1,0,5.5,3.51,8,11.13,9.62,7,1.47,8.62,3.22,8.62,6.34,0,3.36-2.94,5.68-7.39,5.68s-7.91-1.56-11.37-4.69l-2.32,2.75a19.42,19.42,0,0,0,13.55,5.3c6.58,0,11.32-3.69,11.32-9.43,0-5.11-3.41-7.82-10.8-9.43s-9-3.32-9-6.49M847.94,495h11.13v-3.46H833V495h11.13v29.7h3.79Zm-34.1,23.11-20.89-26.57h-3.5v33.16h3.65V497.56l21.41,27.18h3V491.58h-3.65Zm-40.68-26.57h-24v33.16h24.2v-3.41H752.93V509.73H771v-3.41H752.93V495h20.23Zm-45.62,6.3v26.85h3.74V491.58h-3.79l-12.08,18.09-12.08-18.09h-3.79v33.16h3.65V497.93l12.08,17.72h.19ZM672.88,495H684v-3.46H658V495h11.13v29.7h3.79Zm-47.8,4.83c0-3,2.75-5.4,7.05-5.4a14.56,14.56,0,0,1,9.57,3.6l2.18-2.89a17.32,17.32,0,0,0-11.65-4.07c-6.3,0-10.89,3.79-10.89,9.1,0,5.5,3.5,8,11.13,9.62,7,1.47,8.62,3.22,8.62,6.34,0,3.36-2.94,5.68-7.39,5.68s-7.91-1.56-11.37-4.69L620,519.91a19.41,19.41,0,0,0,13.55,5.3c6.58,0,11.32-3.69,11.32-9.43,0-5.11-3.41-7.82-10.8-9.43s-9-3.32-9-6.49m-19.19-8.29h-24v33.16h24.2v-3.41H585.67V509.73h18.09v-3.41H585.67V495h20.22ZM551,520.15,539.2,491.58H535L549.29,525h3.32l14.26-33.4h-4Zm-34.67-2-20.89-26.57h-3.51v33.16h3.65V497.56L517,524.74h3V491.58h-3.65ZM470,524.74h3.74V491.58H470Z" transform="translate(-385.02 -247.32)"/><path class="cls-1" d="M734.78,252.17A3,3,0,0,0,731,250.5a2.79,2.79,0,0,0-1.72,3.63,3,3,0,0,0,3.79,1.67,2.79,2.79,0,0,0,1.73-3.64m4.82,7.27c-7.78,6.88,3.88,25.28-3,44.66-5.51,15.59-20.07,24.74-46.08,24.74l-29.47,25.87H642.6l29.51-25.87H644.66l60.17-52.79,4.3-13.09c.05-.24.12-.49.18-.73l0-.07h0a20.31,20.31,0,0,1,12.82-13.38,23.66,23.66,0,0,1,11.69-1.17l15.9,2.91s-2.29,2-10.14,8.92m-74.87,71.9H646.27l-29.46,25.87H635.3Z" transform="translate(-385.02 -247.32)"/></svg>