<svg id="Capa_1" data-name="Capa 1" xmlns="http://www.w3.org/2000/svg" viewBox="0 0 632 632"><defs><style>.cls-1{fill:#fff;stroke-width:3px;}.cls-1,.cls-2{stroke:#fff;stroke-miterlimit:10;}.cls-2{fill:#3d4754;stroke-width:20px;}</style></defs><title>closed-envelope-circle</title><rect class="cls-1" x="134.47" y="138.64" width="372" height="335"/><path class="cls-2" d="M307.53,612.36a299.44,299.44,0,0,1-81.4-11A310.49,310.49,0,0,1,153,570.44,306.54,306.54,0,0,1,43.45,460.89a310,310,0,0,1-30.9-73.13,306.24,306.24,0,0,1,0-162.79,310.56,310.56,0,0,1,30.91-73.14A306.54,306.54,0,0,1,153,42.28a310,310,0,0,1,73.13-30.9,299.06,299.06,0,0,1,81.4-11q63,0,119,24.18T523.87,90q41.31,41.31,65.48,97.31t24.18,119a299,299,0,0,1-11,81.4,310,310,0,0,1-30.9,73.13A306.54,306.54,0,0,1,462.06,570.44a310.56,310.56,0,0,1-73.14,30.91A299.32,299.32,0,0,1,307.53,612.36ZM455,180.29H164.93a10.62,10.62,0,0,0-7.34,2.75,9.78,9.78,0,0,0-3.06,7.65v32.44c0,1.63.61,2.45,1.84,2.45l152.38,86.9,1.23.61a2.51,2.51,0,0,0,1.84-.61l147.49-86.9a4.64,4.64,0,0,1,1.83-.61,4.73,4.73,0,0,0,1.84-.62,2.16,2.16,0,0,0,2.45-2.44V190.69a9.75,9.75,0,0,0-3.07-7.65A10.61,10.61,0,0,0,455,180.29ZM246.94,310.65a2.49,2.49,0,0,0,.61-1.84c0-1.23-.41-1.84-1.22-1.84l-87.52-50.18a3.93,3.93,0,0,0-3.06,0c-.81,0-1.22.61-1.22,1.84V390.21a2.39,2.39,0,0,0,1.83,2.44h1.23c.81,0,1.22-.2,1.22-.61Zm106.49,9.79q-.62-1.85-3.06-.61l-33.66,19.58q-6.12,3.68-12.86,0l-29.37-16.52q-1.85-1.23-3.06,0l-112,104a3.5,3.5,0,0,0-.61,2.44c0,.41.41,1,1.22,1.84a19.94,19.94,0,0,0,4.9,1.23H452a3.52,3.52,0,0,0,2.45-1.23c0-1.63-.21-2.65-.62-3.06Zm110.16-66.1h-2.45l-83.23,49.57c-.81,0-1.22.62-1.22,1.84-.41.41-.21,1,.61,1.83l83.23,90q1.23,1.23,1.83,1.23h1.23c1.23-1.23,1.84-2,1.84-2.45V256.79C465.42,256,464.81,255.16,463.59,254.34Z" transform="translate(8.47 9.64)"/></svg>