<svg id="Layer_1" data-name="Layer 1" xmlns="http://www.w3.org/2000/svg" viewBox="0 0 40 40"><defs><style>.cls-1{fill:#edeeef;}</style></defs><title>Untitled-5</title><circle cx="20" cy="20" r="20"/><path class="cls-1" d="M676.16,377.67h0a2.62,2.62,0,0,1-1.9-.71,2.34,2.34,0,0,1-.73-1.76,2.3,2.3,0,0,1,.75-1.76,2.76,2.76,0,0,1,2-.7,2.65,2.65,0,0,1,1.91.7,2.4,2.4,0,0,1,.75,1.76,2.32,2.32,0,0,1-.74,1.76A2.74,2.74,0,0,1,676.16,377.67ZM674,379.9h4.47v13.88H674Zm11.63,13.88v-8.06a2.67,2.67,0,0,1,.71-2,2.43,2.43,0,0,1,1.78-.7,2.23,2.23,0,0,1,1.76.77,3.51,3.51,0,0,1,.68,2.37v7.6H695v-8.06a6.67,6.67,0,0,0-1.48-4.61,5,5,0,0,0-3.89-1.65,4.23,4.23,0,0,0-2.3.64,5.72,5.72,0,0,0-1.73,1.72l-.15-1.92H681l.07,3.14v10.74Z" transform="translate(-664 -364.26)"/></svg>