<?xml version="1.0" encoding="utf-8"?>
<!-- Generator: Adobe Illustrator 22.0.1, SVG Export Plug-In . SVG Version: 6.00 Build 0)  -->
<!DOCTYPE svg PUBLIC "-//W3C//DTD SVG 1.1//EN" "http://www.w3.org/Graphics/SVG/1.1/DTD/svg11.dtd">
<svg version="1.1" id="Layer_1" xmlns="http://www.w3.org/2000/svg" xmlns:xlink="http://www.w3.org/1999/xlink" x="0px" y="0px"
	 viewBox="0 0 38.5 38.5" style="enable-background:new 0 0 38.5 38.5;" xml:space="preserve">
<style type="text/css">
	.st0{fill:#FFFFFF;}
</style>
<title>BFAsset 5</title>
<g id="Layer_2_1_">
	<g id="Layer_1-2">
		<path class="st0" d="M19.3,0C8.6,0,0,8.6,0,19.3s8.6,19.3,19.3,19.3S38.6,30,38.6,19.3C38.5,8.6,29.9,0,19.3,0z M19.3,36.8
			C9.5,36.8,1.7,29,1.7,19.3S9.5,1.7,19.3,1.7s17.6,7.8,17.6,17.6l0,0C36.8,29,29,36.8,19.3,36.8z"/>
	</g>
</g>
<g>
	<path class="st0" d="M7.9,11.2h1.5v6.5h3.4v1.4H7.9V11.2z"/>
	<path class="st0" d="M20.1,11.7c0.6,0.4,1.1,0.8,1.5,1.4c0.4,0.6,0.5,1.3,0.5,2c0,0.7-0.2,1.4-0.5,2c-0.4,0.6-0.9,1.1-1.5,1.5
		c-0.6,0.4-1.3,0.5-2.1,0.5c-0.8,0-1.5-0.2-2.1-0.5c-0.6-0.4-1.1-0.8-1.5-1.5s-0.5-1.3-0.5-2c0-0.7,0.2-1.4,0.5-2
		c0.4-0.6,0.9-1.1,1.5-1.4c0.6-0.4,1.3-0.5,2.1-0.5C18.7,11.1,19.4,11.3,20.1,11.7z M16.7,12.8c-0.4,0.2-0.7,0.6-1,1
		c-0.2,0.4-0.4,0.9-0.4,1.4c0,0.5,0.1,0.9,0.4,1.4c0.2,0.4,0.6,0.7,1,1c0.4,0.2,0.8,0.4,1.3,0.4c0.5,0,0.9-0.1,1.3-0.4
		c0.4-0.2,0.7-0.6,1-1c0.2-0.4,0.4-0.9,0.4-1.4c0-0.5-0.1-0.9-0.4-1.4c-0.2-0.4-0.6-0.7-1-1c-0.4-0.2-0.8-0.4-1.3-0.4
		C17.5,12.5,17.1,12.6,16.7,12.8z"/>
	<path class="st0" d="M29.6,15.2h1.3v3c-0.4,0.3-0.9,0.6-1.5,0.7c-0.6,0.2-1.1,0.3-1.6,0.3c-0.8,0-1.5-0.2-2.1-0.5
		c-0.6-0.4-1.1-0.8-1.5-1.5c-0.4-0.6-0.5-1.3-0.5-2c0-0.7,0.2-1.4,0.6-2c0.4-0.6,0.9-1.1,1.5-1.4s1.4-0.5,2.1-0.5
		c0.6,0,1.1,0.1,1.7,0.3c0.5,0.2,1,0.5,1.4,0.8l-0.9,1.1c-0.3-0.3-0.6-0.5-1-0.7c-0.4-0.2-0.8-0.2-1.2-0.2c-0.5,0-0.9,0.1-1.4,0.4
		c-0.4,0.2-0.7,0.6-1,1c-0.2,0.4-0.4,0.9-0.4,1.3c0,0.5,0.1,0.9,0.4,1.4c0.2,0.4,0.6,0.7,1,1c0.4,0.2,0.9,0.4,1.4,0.4
		c0.3,0,0.6,0,0.8-0.1c0.3-0.1,0.6-0.2,0.8-0.4V15.2z"/>
	<path class="st0" d="M13.8,22.8h1.5v7.8h-1.5V22.8z"/>
	<path class="st0" d="M23.4,22.8h1.5v7.8h-1.4l-4-5.4v5.4h-1.5v-7.8h1.4l4,5.4V22.8z"/>
</g>
</svg>
