<?xml version="1.0" encoding="utf-8"?>
<!-- Generator: Adobe Illustrator 22.0.1, SVG Export Plug-In . SVG Version: 6.00 Build 0)  -->
<svg version="1.1" id="Layer_1" xmlns="http://www.w3.org/2000/svg" xmlns:xlink="http://www.w3.org/1999/xlink" x="0px" y="0px"
	 viewBox="0 0 38.5 38.5" style="enable-background:new 0 0 38.5 38.5;" xml:space="preserve">
<style type="text/css">
	.st0{fill:#FFFFFF;}
</style>
<title>BFAsset 5</title>
<g id="Layer_2_1_">
	<g id="Layer_1-2">
		<path class="st0" d="M19.3,0C8.6,0,0,8.6,0,19.3s8.6,19.3,19.3,19.3S38.6,30,38.6,19.3C38.5,8.6,29.9,0,19.3,0z M19.3,36.8
			C9.5,36.8,1.7,29,1.7,19.3S9.5,1.7,19.3,1.7s17.6,7.8,17.6,17.6l0,0C36.8,29,29,36.8,19.3,36.8z"/>
		<path class="st0" d="M13.3,9.6c1.2,0.6,3,3.6,3.6,4.8c0,0.6-1.8,2.4-1.8,3c0.6,1.8,4.2,5.4,6,6c0.6,0,2.4-1.8,3-1.8
			c1.2,0.6,3.6,2.4,4.8,3.6c0,1.2-2.4,3.6-3.6,3.6c-6-1.2-14.4-9.6-15.6-15.6C9.7,12.1,12.1,9.6,13.3,9.6z"/>
	</g>
</g>
</svg>
