<?xml version="1.0" encoding="utf-8"?>
<!-- Generator: Adobe Illustrator 22.0.1, SVG Export Plug-In . SVG Version: 6.00 Build 0)  -->
<svg version="1.1" id="Layer_1" xmlns="http://www.w3.org/2000/svg" xmlns:xlink="http://www.w3.org/1999/xlink" x="0px" y="0px"
	 viewBox="0 0 32.8 32.8" style="enable-background:new 0 0 32.8 32.8;" xml:space="preserve">
<style type="text/css">
	.st0{fill:#FFFFFF;}
</style>
<title>BFAsset 6</title>
<path class="st0" d="M32.8,31.7L22.6,21.5c4.7-5.3,4.3-13.3-0.9-18.2C16.4-1.6,8.2-1.3,3.3,4C-1.6,9.3-1.3,17.5,4,22.4
	C8.9,27,16.5,27,21.5,22.5l10.2,10.2L32.8,31.7z M1.4,12.9c0-6.4,5.1-11.5,11.5-11.5c6.4,0,11.5,5.1,11.5,11.5
	c0,6.4-5.1,11.5-11.5,11.5C6.5,24.4,1.4,19.3,1.4,12.9z"/>
</svg>
